<svg width="16" height="18" viewBox="0 0 16 18" fill="none" xmlns="http://www.w3.org/2000/svg">
    <path fill-rule="evenodd" clip-rule="evenodd"
        d="M13.3154 8.84535C13.3154 10.2905 13.9486 11.6547 15.0527 12.5879H15.0527C15.3433 12.837 15.5062 13.1904 15.5062 13.5643C15.5062 14.269 14.9329 14.8422 14.2282 14.8422H2.17895C1.47425 14.8422 0.901001 14.269 0.901001 13.5643C0.901001 13.1904 1.06385 12.837 1.34792 12.5938C2.45865 11.6547 3.09178 10.2905 3.09178 8.84535V6.80939C3.09178 4.23961 4.99995 2.11237 7.47334 1.756V0.967321C7.47334 0.563491 7.8005 0.237061 8.2036 0.237061C8.6067 0.237061 8.93386 0.563491 8.93386 0.967321V1.756C11.4065 2.11236 13.3154 4.23961 13.3154 6.80939V8.84535ZM10.8859 15.573C10.6318 16.821 9.52547 17.7638 8.20297 17.7638C6.88047 17.7638 5.77413 16.821 5.52 15.573H10.8859Z"
        fill="white" />
</svg>