<svg width="21" height="21" viewBox="0 0 21 21" fill="none" xmlns="http://www.w3.org/2000/svg">
    <path fill-rule="evenodd" clip-rule="evenodd"
        d="M17.4719 2.20028H16.7731V1.32675C16.7731 0.94081 16.4602 0.62793 16.0742 0.62793C15.6883 0.62793 15.3754 0.9408 15.3754 1.32675V2.20028H4.89175V1.32675C4.89175 0.94081 4.57888 0.62793 4.19292 0.62793C3.80697 0.62793 3.49411 0.9408 3.49411 1.32675V2.20028H2.7953C1.25149 2.20028 0 3.45177 0 4.99556V17.9265C0 19.4703 1.2515 20.7218 2.7953 20.7218H17.4733C19.0171 20.7218 20.2686 19.4703 20.2686 17.9265L20.2685 4.99556C20.2685 3.45124 19.0162 2.19953 17.4719 2.20028H17.4719ZM18.5201 17.5771C18.5201 18.349 17.8944 18.9747 17.1225 18.9747H3.14334C2.37144 18.9747 1.7457 18.349 1.7457 17.5771V6.39456H18.5201L18.5201 17.5771Z"
        fill="white" />
</svg>