<svg width="30" height="30" viewBox="0 0 30 30" fill="none" xmlns="http://www.w3.org/2000/svg">
<path d="M21.8741 10.3299C21.4346 9.88988 20.7209 9.89016 20.2809 10.3299L13.1105 17.5006L9.92352 14.3137C9.48345 13.8736 8.77012 13.8736 8.33005 14.3137C7.88998 14.7538 7.88998 15.4671 8.33005 15.9072L12.3135 19.8907C12.5334 20.1106 12.8218 20.2208 13.1101 20.2208C13.3985 20.2208 13.6871 20.1109 13.907 19.8907L21.874 11.9234C22.3141 11.4836 22.3141 10.77 21.874 10.33L21.8741 10.3299Z" fill="white"/>
<path d="M15 1.25C22.5939 1.25 28.75 7.40609 28.75 15C28.75 22.5939 22.5939 28.75 15 28.75C7.40609 28.75 1.25 22.5939 1.25 15C1.25 7.40609 7.40609 1.25 15 1.25Z" stroke="white" stroke-width="2.5"/>
</svg>
