<svg width="17" height="17" viewBox="0 0 17 17" fill="none" xmlns="http://www.w3.org/2000/svg">
    <g id="Gruppe 4" clip-path="url(#clip0_29_752)">
        <path id="Pfad 10" fill-rule="evenodd" clip-rule="evenodd"
            d="M8.49998 0C3.807 0 0.00129 3.80467 0 8.49881C0 13.1948 3.80628 17.0006 8.50115 17C13.1954 17 17.0006 13.1942 17 8.49998C16.9942 3.80797 13.192 0.00579 8.49998 0ZM8.49998 15.7596C4.49058 15.7596 1.24031 12.5094 1.24031 8.49998C1.24031 4.48895 4.49129 1.23849 8.50115 1.23914C12.5094 1.23914 15.7596 4.48941 15.7596 8.49881C15.7571 12.5073 12.5085 15.7564 8.49997 15.7596H8.49998Z"
            fill="white" />
        <path id="Pfad 11"
            d="M11.3977 8.4988H8.71148V3.54106C8.71148 3.19856 8.43383 2.9209 8.09132 2.9209C7.74863 2.9209 7.47064 3.19836 7.47 3.54106V9.12012C7.47 9.46262 7.74765 9.74028 8.09015 9.74028H11.3988C11.7415 9.74028 12.0195 9.46282 12.0201 9.12012C12.0201 8.95513 11.9545 8.79692 11.8377 8.68036C11.721 8.56381 11.5626 8.49848 11.3977 8.49879V8.4988Z"
            fill="white" />
    </g>
    <defs>
        <clipPath id="clip0_29_752">
            <rect width="17" height="17" fill="white" />
        </clipPath>
    </defs>
</svg>