<svg width="40" height="40" viewBox="0 0 40 40" fill="none" xmlns="http://www.w3.org/2000/svg">
    <path
        d="M15.9375 17.6668L13.5 26.0002L21.8333 23.5627L31.6042 13.7918L25.7083 7.896L15.9375 17.6668Z"
        fill="white" />
    <path
        d="M36.4167 3.0833C35.5679 2.30266 34.4442 1.89057 33.2921 1.93744C32.1399 1.98431 31.0533 2.48631 30.2708 3.3333L15.9375 17.6666L13.5 26L21.8333 23.5625L36.1667 9.3333C36.6016 8.94442 36.954 8.47208 37.2029 7.94435C37.4518 7.41661 37.592 6.84424 37.6153 6.26124C37.6387 5.67824 37.5446 5.0965 37.3386 4.55057C37.1327 4.00465 36.8192 3.50567 36.4167 3.0833Z"
        stroke="white" stroke-width="2" stroke-linecap="round" stroke-linejoin="round" />
    <path
        d="M19.75 1H3.08333C2.5308 1 2.00089 1.21949 1.61019 1.61019C1.21949 2.00089 1 2.5308 1 3.08333V36.4167C1 36.9692 1.21949 37.4991 1.61019 37.8898C2.00089 38.2805 2.5308 38.5 3.08333 38.5H36.4167C36.9692 38.5 37.4991 38.2805 37.8898 37.8898C38.2805 37.4991 38.5 36.9692 38.5 36.4167V19.75"
        stroke="white" stroke-width="2" stroke-linecap="round" stroke-linejoin="round" />
</svg>