<svg width="13" height="13" viewBox="0 0 13 13" fill="none" xmlns="http://www.w3.org/2000/svg">
    <path
        d="M12.6605 11.4202L7.69952 6.45823L12.6605 1.49823C13.0029 1.15471 13.002 0.598652 12.6585 0.256232C12.315 -0.0861876 11.7589 -0.0852976 11.4165 0.258232L6.45652 5.21923L1.49952 0.258232C1.15683 -0.0841776 0.601442 -0.0839576 0.259022 0.258732C-0.0833985 0.601422 -0.0831684 1.15681 0.259522 1.49923L5.21652 6.45823L0.256522 11.4182C-0.0858985 11.7612 -0.0854485 12.3168 0.257522 12.6592C0.600492 13.0017 1.1561 13.0012 1.49852 12.6582L6.45852 7.69723L11.4165 12.6582C11.7589 13.0009 12.3143 13.0012 12.657 12.6587C12.9997 12.3163 12.9999 11.7609 12.6575 11.4182L12.6605 11.4202Z"
        fill="white" />
</svg>