<svg width="26" height="35" viewBox="0 0 26 35" fill="none" xmlns="http://www.w3.org/2000/svg">
    <path
        d="M15.7394 17.0749C15.1026 15.1857 13.0548 14.1703 11.1655 14.8072C9.39475 15.404 8.37219 17.2535 8.80832 19.0705C10.1079 23.5887 14.8615 27.6434 19.215 31.0887C19.5277 31.3363 19.9818 31.2837 20.2294 30.971C20.477 30.6583 20.4244 30.2043 20.1117 29.9566C15.9329 26.6499 11.3772 22.7786 10.196 18.6719C9.86536 17.5215 10.53 16.321 11.6804 15.9905C12.8308 15.6599 14.0313 16.3245 14.3619 17.4749C15.1502 20.2184 19.0707 23.6089 22.8004 26.5603C23.1131 26.8079 23.5672 26.7553 23.8149 26.4426C24.0624 26.13 24.0098 25.6759 23.6972 25.4282C21.7276 23.8732 16.512 19.7462 15.7394 17.0749L15.7394 17.0749Z"
        fill="url(#paint0_linear_13_1757)" />
    <path
        d="M21.2119 15.2139C19.6422 10.4014 14.5568 7.68296 9.6832 9.05104C4.7006 10.4807 1.82042 15.6789 3.25014 20.6616C3.25116 20.6651 3.25218 20.6687 3.25319 20.6722C4.43871 24.7904 1.8973 25.9326 1.08722 26.1838C0.706824 26.3034 0.495444 26.7088 0.615041 27.0892C0.734649 27.4696 1.14001 27.681 1.52042 27.5614C3.72828 26.8712 5.87258 24.5493 4.64083 20.2721C3.42653 16.0574 5.85891 11.6563 10.0736 10.4421C10.0758 10.4415 10.0781 10.4408 10.0803 10.4402C14.2476 9.26878 18.5895 11.6306 19.8704 15.7655C19.8875 15.8218 19.9118 15.8757 19.9426 15.9258C20.0177 16.05 20.1722 16.3113 24.8132 20.0772C25.1225 20.3288 25.5774 20.2819 25.829 19.9725C26.0806 19.6631 26.0337 19.2083 25.7243 18.9567C24.0377 17.5878 21.5729 15.5533 21.2119 15.2139Z"
        fill="url(#paint1_linear_13_1757)" />
    <path
        d="M18.5179 16.2763C17.5207 12.8328 13.9268 10.8437 10.4793 11.8274C7.09422 12.8725 5.12948 16.3949 6.01881 19.8242C7.47725 26.4664 6.38703 27.9999 3.39509 28.9356C3.01469 29.0552 2.8033 29.4606 2.92291 29.841C3.0425 30.2214 3.44789 30.4328 3.82828 30.3132C8.00858 29.0136 8.91688 26.2816 7.4382 19.5137C6.71984 16.83 8.23858 14.0559 10.8864 13.2151C13.5694 12.4534 16.3637 14.0018 17.1403 16.6806C17.4291 17.6654 18.1959 19.0169 24.109 23.6969C24.4216 23.9445 24.8757 23.8918 25.1234 23.5792C25.371 23.2665 25.3183 22.8124 25.0057 22.5648C19.6384 18.3196 18.72 16.9752 18.5179 16.2763V16.2763Z"
        fill="url(#paint2_linear_13_1757)" />
    <path
        d="M20.5044 26.3264C18.0612 24.4723 13.9719 21.3707 12.9654 17.8734C12.8487 17.4921 12.445 17.2776 12.0637 17.3944C11.6918 17.5082 11.4769 17.8963 11.5777 18.2719C12.7156 22.2313 17.0446 25.5149 19.6308 27.4773C20.1564 27.8557 20.6624 28.2606 21.147 28.6902C21.4337 28.9673 21.8908 28.9594 22.1679 28.6726C22.4381 28.3927 22.4381 27.9491 22.1679 27.6694C21.6391 27.1908 21.0837 26.7424 20.5044 26.3264H20.5044Z"
        fill="url(#paint3_linear_13_1757)" />
    <path
        d="M16.5974 31.3488C15.8677 29.995 14.5235 29.0821 12.9961 28.9027C10.5414 28.9027 10.1616 33.0758 10.1082 33.9118C10.0835 34.3097 10.386 34.6524 10.7839 34.6772H10.8302C11.2121 34.6779 11.5285 34.3811 11.5522 34C11.6431 32.5127 12.212 30.3467 12.9961 30.3467C14.0661 30.3467 14.8256 31.3777 15.435 32.2052C15.6363 32.4921 15.8567 32.7651 16.0949 33.0224C16.3817 33.2995 16.8388 33.2915 17.1158 33.0047C17.3861 32.7249 17.3861 32.2813 17.1158 32.0015C16.9291 31.7954 16.7558 31.5774 16.5974 31.3488L16.5974 31.3488Z"
        fill="url(#paint4_linear_13_1757)" />
    <path
        d="M10.0746 25.0733C9.93884 24.6984 9.52488 24.5045 9.14995 24.6402C8.79731 24.7678 8.60108 25.1444 8.69847 25.5065C9.31653 27.4372 8.10211 31.2261 6.27552 31.8196C5.89499 31.9387 5.68306 32.3437 5.80211 32.7243C5.92126 33.1048 6.32629 33.3167 6.70683 33.1977C6.71182 33.1961 6.71677 33.1945 6.72171 33.1928C9.49982 32.2976 10.8398 27.4718 10.0746 25.0733Z"
        fill="url(#paint5_linear_13_1757)" />
    <path
        d="M25.492 15.2198C24.5895 14.931 23.8805 13.7758 23.0589 12.4574C21.3203 9.64743 18.9363 5.79926 12.2738 5.79926C5.49843 5.80724 0.00791689 11.2978 0 18.0731C0 18.4718 0.32327 18.7951 0.722014 18.7951C1.12075 18.7951 1.44402 18.4718 1.44402 18.0731C1.45038 12.0946 6.29531 7.24964 12.2739 7.24328C18.132 7.24328 20.184 10.5558 21.833 13.2184C22.8034 14.7852 23.6408 16.1382 25.0473 16.5944C25.4252 16.7217 25.8347 16.5186 25.962 16.1408C26.0893 15.7629 25.8862 15.3534 25.5084 15.2261C25.5034 15.2244 25.4985 15.2228 25.4935 15.2212L25.492 15.2198Z"
        fill="url(#paint6_linear_13_1757)" />
    <path
        d="M1.44403 23.8487C1.84276 23.8487 2.16604 23.5254 2.16597 23.1267C2.16597 23.0144 2.13978 22.9036 2.08948 22.8033C1.78137 22.2257 1.56363 21.6044 1.44403 20.9608C1.44403 20.5621 1.12075 20.2388 0.722009 20.2388C0.32327 20.2388 0 20.5621 0 20.9608C0.115876 21.8315 0.386351 22.6745 0.798493 23.4502C0.921012 23.6944 1.17084 23.8487 1.44403 23.8487Z"
        fill="url(#paint7_linear_13_1757)" />
    <path
        d="M1.06863 8.58144C1.4091 8.78897 1.85339 8.68129 2.06092 8.34082C2.06132 8.34014 2.06172 8.33954 2.06207 8.33885C2.68877 7.30494 5.77595 4.3549 11.5519 4.3549C17.1025 4.3549 21.0518 7.16632 21.7637 8.33885C21.9706 8.67979 22.4148 8.78836 22.7557 8.58144C23.0966 8.37452 23.2052 7.93037 22.9983 7.58943C22.0077 5.95771 17.6339 2.91095 11.5519 2.91095C5.08434 2.91095 1.61737 6.28843 0.826049 7.59085C0.619951 7.93145 0.728516 8.37459 1.06863 8.58144H1.06863Z"
        fill="url(#paint8_linear_13_1757)" />
    <path
        d="M5.34275 2.84757C5.67339 2.7032 5.95355 2.55875 6.21922 2.41438C7.30512 1.86714 8.08628 1.46711 11.5518 1.46711C13.8918 1.33817 16.2323 1.71288 18.415 2.566C18.6909 2.66854 18.9681 2.77102 19.2583 2.87065C19.334 2.89692 19.4135 2.91058 19.4937 2.91106C19.8924 2.91181 20.2162 2.58915 20.217 2.19041C20.2175 1.88135 20.0214 1.60627 19.729 1.5061C19.4488 1.40937 19.1832 1.31116 18.9175 1.21728C16.5743 0.303445 14.0639 -0.103553 11.5519 0.0231562C7.73404 0.0231562 6.7781 0.514086 5.56517 1.13646C5.32114 1.26209 5.06124 1.39496 4.75799 1.53067C4.38747 1.67795 4.20648 2.09775 4.35371 2.46826C4.50098 2.83877 4.92079 3.01977 5.29129 2.87255C5.31025 2.86503 5.32887 2.85671 5.34707 2.84757L5.34275 2.84757Z"
        fill="url(#paint9_linear_13_1757)" />
    <path
        d="M24.5807 12.5165C24.7165 12.8914 25.1304 13.0853 25.5053 12.9496C25.858 12.8219 26.0542 12.4455 25.9568 12.0833C25.5472 11.0226 25.0391 10.0025 24.4392 9.03652C24.2302 8.69681 23.7855 8.59073 23.4458 8.7997C23.106 9.00863 23 9.45341 23.2089 9.79313C23.7465 10.6583 24.2055 11.5697 24.5807 12.5165H24.5807Z"
        fill="url(#paint10_linear_13_1757)" />
    <path
        d="M19.6585 31.2448C19.496 31.2446 19.3383 31.1897 19.2109 31.0888C14.8573 27.642 10.1081 23.5888 8.80854 19.0706C8.3432 17.132 9.53759 15.1832 11.4763 14.7179C13.2933 14.2818 15.1428 15.3043 15.7396 17.075C16.5078 19.7449 21.7235 23.8733 23.6815 25.427C24.0017 25.6646 24.0687 26.1169 23.831 26.437C23.5934 26.7572 23.1411 26.8242 22.821 26.5865C22.8091 26.5777 22.7975 26.5685 22.7862 26.559C19.0564 23.6076 15.1331 20.2185 14.3462 17.4736C14.0156 16.3236 12.8154 15.6593 11.6654 15.9899C10.5155 16.3205 9.85117 17.5207 10.1817 18.6706C11.363 22.7773 15.9187 26.6486 20.0962 29.9553C20.4088 30.2028 20.4615 30.6569 20.214 30.9695C20.0768 31.1427 19.868 31.2436 19.647 31.2433L19.6585 31.2448Z"
        fill="url(#paint11_linear_13_1757)" />
    <path
        d="M1.29952 27.5901C0.900772 27.5893 0.578114 27.2655 0.578859 26.8667C0.579399 26.5519 0.784014 26.2737 1.0844 26.1793C1.89157 25.9266 4.43299 24.7844 3.25037 20.6676C1.81746 15.686 4.69426 10.4859 9.67591 9.05297C9.67835 9.0523 9.68085 9.05155 9.68328 9.05089C14.5574 7.68185 19.6438 10.4005 21.2135 15.2138C21.573 15.5517 24.0379 17.5877 25.7244 18.9566C26.0262 19.2172 26.0595 19.6731 25.7989 19.9749C25.5495 20.2638 25.1182 20.3085 24.8147 20.0771C20.1723 16.3098 20.0178 16.0484 19.9427 15.9242C19.9129 15.8743 19.8891 15.821 19.872 15.7654C18.5911 11.6297 14.2482 9.26768 10.0804 10.44C5.86476 11.6513 3.42927 16.0506 4.64052 20.2662C4.64065 20.2666 4.6408 20.2672 4.64092 20.2677C5.87119 24.5433 3.7283 26.8666 1.51902 27.5569C1.44802 27.5793 1.37397 27.5905 1.29952 27.5901Z"
        fill="url(#paint12_linear_13_1757)" />
    <path
        d="M3.61011 30.3466C3.21137 30.3459 2.88871 30.022 2.88947 29.6233C2.89 29.3084 3.09462 29.0302 3.395 28.9358C6.38695 28.0001 7.47569 26.4637 6.01725 19.8243C5.12866 16.3951 7.09312 12.8733 10.4777 11.8276C13.9253 10.8464 17.5178 12.8344 18.5178 16.2765C18.7185 16.9739 19.6354 18.3182 24.994 22.5607C25.3142 22.7983 25.3812 23.2506 25.1435 23.5707C24.9059 23.8909 24.4537 23.9579 24.1335 23.7202C24.1217 23.7114 24.11 23.7022 24.0987 23.6927C18.1784 19.0114 17.4116 17.6584 17.1301 16.6765C16.3563 13.9948 13.5586 12.4449 10.8748 13.2109C8.22395 14.0524 6.70507 16.8312 7.42796 19.5168C8.91382 26.2861 8.00553 29.0109 3.81804 30.3163C3.75062 30.3366 3.68057 30.3469 3.6101 30.3466H3.61011Z"
        fill="url(#paint13_linear_13_1757)" />
    <path
        d="M21.6595 28.9024C21.4679 28.9027 21.284 28.8269 21.1484 28.6915C20.6636 28.2616 20.1576 27.8562 19.6322 27.4772C17.046 25.5148 12.717 22.2312 11.5791 18.2718C11.4624 17.8906 11.6768 17.4869 12.0581 17.3701C12.4394 17.2534 12.8431 17.4679 12.9598 17.8491C12.9623 17.8571 12.9646 17.8652 12.9668 17.8732C13.9775 21.3705 18.0611 24.4722 20.5043 26.3262C21.084 26.7429 21.6398 27.1917 22.1692 27.6706C22.4507 27.9529 22.45 28.4101 22.1676 28.6916C22.0327 28.8263 21.8501 28.902 21.6595 28.9024H21.6595Z"
        fill="url(#paint14_linear_13_1757)" />
    <path
        d="M10.8302 34.6783H10.7839C10.386 34.6535 10.0835 34.3109 10.1082 33.913C10.1601 33.0769 10.5414 28.9038 12.9961 28.9038C14.5267 29.0817 15.8742 29.9954 16.6061 31.3514C16.7636 31.5803 16.9362 31.7983 17.123 32.0041C17.4 32.2908 17.3921 32.7479 17.1052 33.025C16.8254 33.2952 16.3819 33.2952 16.1021 33.025C15.8635 32.7687 15.643 32.496 15.4422 32.2091C14.8271 31.3774 14.0675 30.3465 12.9961 30.3465C12.2134 30.3465 11.6431 32.5124 11.5521 34.0012C11.5285 34.3822 11.2121 34.679 10.8302 34.6783H10.8302Z"
        fill="url(#paint15_linear_13_1757)" />
    <path
        d="M6.49782 33.2343C6.09909 33.235 5.7752 32.9124 5.77448 32.5137C5.77385 32.1996 5.97644 31.9211 6.2755 31.825C8.10065 31.2315 9.30783 27.4425 8.69846 25.5119C8.5557 25.1396 8.74185 24.7221 9.11412 24.5793C9.4864 24.4366 9.90394 24.6227 10.0467 24.995C10.0572 25.0224 10.066 25.0503 10.0731 25.0788C10.8399 27.4772 9.49554 32.2987 6.72018 33.2055C6.64804 33.2266 6.57302 33.2363 6.49782 33.2343Z"
        fill="url(#paint16_linear_13_1757)" />
    <path
        d="M0.722014 18.795C0.323275 18.795 0 18.4718 0 18.073C0.00798857 11.2977 5.49843 5.80717 12.2738 5.79926C18.9363 5.79926 21.3203 9.64743 23.0603 12.4574C23.8819 13.7816 24.5909 14.9266 25.4934 15.2198C25.8739 15.3389 26.0859 15.7439 25.9668 16.1245C25.8478 16.505 25.4426 16.7169 25.0621 16.5979C25.0571 16.5963 25.0522 16.5947 25.0472 16.593C23.6408 16.1367 22.8033 14.7837 21.8329 13.217C20.1839 10.5558 18.132 7.24328 12.2738 7.24328C6.29524 7.24964 1.45031 12.0946 1.44395 18.0731C1.44396 18.4718 1.12075 18.795 0.722014 18.795Z"
        fill="url(#paint17_linear_13_1757)" />
    <path
        d="M1.44395 23.8488C1.17022 23.8493 0.919722 23.695 0.79707 23.4503C0.385067 22.6746 0.115131 21.8315 0 20.9608C0 20.5621 0.32327 20.2388 0.722014 20.2388C1.12075 20.2388 1.44402 20.5621 1.44402 20.9608C1.56396 21.6043 1.78164 22.2257 2.08948 22.8033C2.26811 23.1598 2.12393 23.5936 1.76743 23.7722C1.66699 23.8226 1.55624 23.8488 1.44395 23.8488Z"
        fill="url(#paint18_linear_13_1757)" />
    <path
        d="M22.3818 8.68683C22.1291 8.68696 21.8947 8.55497 21.7638 8.33886C21.0534 7.16632 17.1026 4.35491 11.552 4.35491C5.77612 4.35491 2.68887 7.30495 2.06075 8.33886C1.86621 8.6869 1.42632 8.81137 1.07828 8.61678C0.730235 8.42225 0.605764 7.98235 0.800357 7.6343C0.80888 7.61902 0.818021 7.60405 0.827636 7.58943C1.61747 6.28844 5.08451 2.91095 11.5521 2.91095C17.6341 2.91095 22.0079 5.95771 22.9985 7.59086C23.205 7.93193 23.0959 8.37588 22.7549 8.58239C22.6423 8.65055 22.5134 8.68669 22.3818 8.68683H22.3818Z"
        fill="url(#paint19_linear_13_1757)" />
    <path
        d="M19.4939 2.91107C19.4138 2.91121 19.3343 2.89808 19.2585 2.87208C18.9697 2.77245 18.6896 2.66848 18.4138 2.56743C16.2315 1.71417 13.8917 1.33892 11.552 1.46712C8.08646 1.46712 7.3053 1.86707 6.22664 2.42014C5.96099 2.55734 5.67942 2.70029 5.35019 2.85333C4.98495 3.01483 4.55791 2.84968 4.39642 2.48438C4.23492 2.11914 4.40008 1.69211 4.76537 1.53061C5.07004 1.39341 5.32852 1.2606 5.57404 1.13498C6.77832 0.514096 7.73567 0.0230993 11.5521 0.0230993C14.0633 -0.104966 16.5732 0.300544 18.9164 1.21296C19.182 1.31117 19.4478 1.41081 19.7279 1.50178C20.1075 1.62361 20.3165 2.0302 20.1947 2.40986C20.0972 2.71323 19.8125 2.91696 19.4939 2.91107H19.4939Z"
        fill="url(#paint20_linear_13_1757)" />
    <path
        d="M25.2697 13.0187C24.9558 13.0185 24.6779 12.8154 24.5824 12.5162C24.2073 11.5675 23.7482 10.6542 23.2106 9.78709C23.0016 9.44737 23.1076 9.0026 23.4474 8.79367C23.7872 8.58471 24.2319 8.69072 24.4409 9.0305C25.0402 9.99656 25.5478 11.0166 25.957 12.0773C26.0783 12.4571 25.8686 12.8634 25.4887 12.9845C25.418 13.0071 25.3441 13.0187 25.2697 13.0187V13.0187Z"
        fill="url(#paint21_linear_13_1757)" />
    <defs>
        <linearGradient id="paint0_linear_13_1757" x1="16.3395" y1="14.6171" x2="16.3395"
            y2="31.2448" gradientUnits="userSpaceOnUse">
            <stop stop-color="#A5AFC4" />
            <stop offset="1" stop-color="#6D7B98" stop-opacity="0" />
        </linearGradient>
        <linearGradient id="paint1_linear_13_1757" x1="13.2862" y1="8.69757" x2="13.2862"
            y2="27.5948" gradientUnits="userSpaceOnUse">
            <stop stop-color="#A5AFC4" />
            <stop offset="1" stop-color="#6D7B98" stop-opacity="0" />
        </linearGradient>
        <linearGradient id="paint2_linear_13_1757" x1="14.0845" y1="11.5759" x2="14.0845"
            y2="30.3466" gradientUnits="userSpaceOnUse">
            <stop stop-color="#A5AFC4" />
            <stop offset="1" stop-color="#6D7B98" stop-opacity="0" />
        </linearGradient>
        <linearGradient id="paint3_linear_13_1757" x1="16.9617" y1="17.3625" x2="16.9617"
            y2="28.8929" gradientUnits="userSpaceOnUse">
            <stop stop-color="#A5AFC4" />
            <stop offset="1" stop-color="#6D7B98" stop-opacity="0" />
        </linearGradient>
        <linearGradient id="paint4_linear_13_1757" x1="13.7126" y1="28.9027" x2="13.7126"
            y2="34.6772" gradientUnits="userSpaceOnUse">
            <stop stop-color="#A5AFC4" />
            <stop offset="1" stop-color="#6D7B98" stop-opacity="0" />
        </linearGradient>
        <linearGradient id="paint5_linear_13_1757" x1="8.02818" y1="24.5969" x2="8.02818"
            y2="33.2308" gradientUnits="userSpaceOnUse">
            <stop stop-color="#A5AFC4" />
            <stop offset="1" stop-color="#6D7B98" stop-opacity="0" />
        </linearGradient>
        <linearGradient id="paint6_linear_13_1757" x1="13" y1="5.79926" x2="13" y2="18.7951"
            gradientUnits="userSpaceOnUse">
            <stop stop-color="#A5AFC4" />
            <stop offset="1" stop-color="#6D7B98" stop-opacity="0" />
        </linearGradient>
        <linearGradient id="paint7_linear_13_1757" x1="1.08298" y1="20.2388" x2="1.08298"
            y2="23.8487" gradientUnits="userSpaceOnUse">
            <stop stop-color="#A5AFC4" />
            <stop offset="1" stop-color="#6D7B98" stop-opacity="0" />
        </linearGradient>
        <linearGradient id="paint8_linear_13_1757" x1="11.9124" y1="2.91095" x2="11.9124"
            y2="8.68707" gradientUnits="userSpaceOnUse">
            <stop stop-color="#A5AFC4" />
            <stop offset="1" stop-color="#6D7B98" stop-opacity="0" />
        </linearGradient>
        <linearGradient id="paint9_linear_13_1757" x1="12.2597" y1="0.000549316" x2="12.2597"
            y2="2.92376" gradientUnits="userSpaceOnUse">
            <stop stop-color="#A5AFC4" />
            <stop offset="1" stop-color="#6D7B98" stop-opacity="0" />
        </linearGradient>
        <linearGradient id="paint10_linear_13_1757" x1="24.5418" y1="8.69257" x2="24.5418"
            y2="12.9929" gradientUnits="userSpaceOnUse">
            <stop stop-color="#A5AFC4" />
            <stop offset="1" stop-color="#6D7B98" stop-opacity="0" />
        </linearGradient>
        <linearGradient id="paint11_linear_13_1757" x1="16.3406" y1="14.6176" x2="16.3406"
            y2="31.2448" gradientUnits="userSpaceOnUse">
            <stop stop-color="#A5AFC4" />
            <stop offset="1" stop-color="#6D7B98" stop-opacity="0" />
        </linearGradient>
        <linearGradient id="paint12_linear_13_1757" x1="13.2767" y1="8.69702" x2="13.2767"
            y2="27.5901" gradientUnits="userSpaceOnUse">
            <stop stop-color="#A5AFC4" />
            <stop offset="1" stop-color="#6D7B98" stop-opacity="0" />
        </linearGradient>
        <linearGradient id="paint13_linear_13_1757" x1="14.0876" y1="11.5771" x2="14.0876"
            y2="30.3466" gradientUnits="userSpaceOnUse">
            <stop stop-color="#A5AFC4" />
            <stop offset="1" stop-color="#6D7B98" stop-opacity="0" />
        </linearGradient>
        <linearGradient id="paint14_linear_13_1757" x1="16.9636" y1="17.3383" x2="16.9636"
            y2="28.9024" gradientUnits="userSpaceOnUse">
            <stop stop-color="#A5AFC4" />
            <stop offset="1" stop-color="#6D7B98" stop-opacity="0" />
        </linearGradient>
        <linearGradient id="paint15_linear_13_1757" x1="13.7162" y1="28.9038" x2="13.7162"
            y2="34.6783" gradientUnits="userSpaceOnUse">
            <stop stop-color="#A5AFC4" />
            <stop offset="1" stop-color="#6D7B98" stop-opacity="0" />
        </linearGradient>
        <linearGradient id="paint16_linear_13_1757" x1="8.03035" y1="24.5313" x2="8.03035"
            y2="33.2346" gradientUnits="userSpaceOnUse">
            <stop stop-color="#A5AFC4" />
            <stop offset="1" stop-color="#6D7B98" stop-opacity="0" />
        </linearGradient>
        <linearGradient id="paint17_linear_13_1757" x1="13" y1="5.79926" x2="13" y2="18.795"
            gradientUnits="userSpaceOnUse">
            <stop stop-color="#A5AFC4" />
            <stop offset="1" stop-color="#6D7B98" stop-opacity="0" />
        </linearGradient>
        <linearGradient id="paint18_linear_13_1757" x1="1.08307" y1="20.2388" x2="1.08307"
            y2="23.8488" gradientUnits="userSpaceOnUse">
            <stop stop-color="#A5AFC4" />
            <stop offset="1" stop-color="#6D7B98" stop-opacity="0" />
        </linearGradient>
        <linearGradient id="paint19_linear_13_1757" x1="11.9057" y1="2.91095" x2="11.9057"
            y2="8.7087" gradientUnits="userSpaceOnUse">
            <stop stop-color="#A5AFC4" />
            <stop offset="1" stop-color="#6D7B98" stop-opacity="0" />
        </linearGradient>
        <linearGradient id="paint20_linear_13_1757" x1="12.282" y1="0" x2="12.282" y2="2.91528"
            gradientUnits="userSpaceOnUse">
            <stop stop-color="#A5AFC4" />
            <stop offset="1" stop-color="#6D7B98" stop-opacity="0" />
        </linearGradient>
        <linearGradient id="paint21_linear_13_1757" x1="24.5474" y1="8.68652" x2="24.5474"
            y2="13.0187" gradientUnits="userSpaceOnUse">
            <stop stop-color="#A5AFC4" />
            <stop offset="1" stop-color="#6D7B98" stop-opacity="0" />
        </linearGradient>
    </defs>
</svg>