<svg width="14" height="16" viewBox="0 0 14 16" fill="none" xmlns="http://www.w3.org/2000/svg">
    <path fill-rule="evenodd" clip-rule="evenodd"
        d="M5.49731 0.706512C5.49731 0.316047 5.81385 -0.000488281 6.20431 -0.000488281H7.79742C8.18789 -0.000488281 8.50442 0.316046 8.50442 0.706512V14.5154C8.50442 14.9059 8.18789 15.2224 7.79742 15.2224H6.20431C5.81385 15.2224 5.49731 14.9059 5.49731 14.5154V0.706512ZM1.1886 5.82997H2.61742C2.82763 5.82878 3.02965 5.91146 3.17871 6.05968C3.32777 6.20791 3.41159 6.40945 3.41158 6.61967V14.4353C3.41158 14.8708 3.05852 15.2238 2.62299 15.2238H1.18859C0.753072 15.2238 0.400002 14.8708 0.400002 14.4353V6.61856C0.400002 6.18304 0.753062 5.82997 1.18859 5.82997H1.1886ZM11.2993 3.42487C10.9088 3.42487 10.5923 3.7414 10.5923 4.13187V14.5154C10.5923 14.9059 10.9088 15.2224 11.2993 15.2224H12.8924C13.2829 15.2224 13.5994 14.9059 13.5994 14.5154V4.13187C13.5994 3.7414 13.2829 3.42487 12.8924 3.42487H11.2993Z"
        fill="white" />
</svg>