<svg width="30" height="131" viewBox="0 0 30 131" fill="none" xmlns="http://www.w3.org/2000/svg">
<g clip-path="url(#clip0_17_1109)">
<path d="M0.5 65.5H29.2222" stroke="white"/>
<path opacity="0.302673" d="M0.5 110.5H29.2222" stroke="white"/>
<path opacity="0.3" d="M0.5 20.5H29.2222" stroke="white"/>
<path opacity="0.89773" d="M0.5 60.5H11.5" stroke="white" stroke-width="0.5"/>
<path opacity="0.345938" d="M0.5 105.5H11.5" stroke="white" stroke-width="0.5"/>
<path opacity="0.101389" d="M0.5 125.5H11.5" stroke="white" stroke-width="0.5"/>
<path opacity="0.0733816" d="M0.5 130.5H11.5" stroke="white" stroke-width="0.5"/>
<path opacity="0.7" d="M0.5 50.5H11.5" stroke="white" stroke-width="0.5"/>
<path opacity="0.449623" d="M0.5 95.5H11.5" stroke="white" stroke-width="0.5"/>
<path opacity="0.253897" d="M0.5 115.5H11.5" stroke="white" stroke-width="0.5"/>
<path opacity="0.5" d="M0.5 40.5H11.5" stroke="white" stroke-width="0.5"/>
<path opacity="0.25" d="M0.5 15.5H11.5" stroke="white" stroke-width="0.5"/>
<path opacity="0.598236" d="M0.5 85.5H11.5" stroke="white" stroke-width="0.5"/>
<path opacity="0.35" d="M0.5 25.5H11.5" stroke="white" stroke-width="0.5"/>
<path opacity="0.0720949" d="M0.5 0.5H11.5" stroke="white" stroke-width="0.5"/>
<path opacity="0.903481" d="M0.5 70.5H11.5" stroke="white" stroke-width="0.5"/>
<path opacity="0.8" d="M0.5 55.5H11.5" stroke="white" stroke-width="0.5"/>
<path opacity="0.404627" d="M0.5 100.5H11.5" stroke="white" stroke-width="0.5"/>
<path opacity="0.147314" d="M0.5 120.5H11.5" stroke="white" stroke-width="0.5"/>
<path opacity="0.6" d="M0.5 45.5H11.5" stroke="white" stroke-width="0.5"/>
<path opacity="0.501503" d="M0.5 90.5H11.5" stroke="white" stroke-width="0.5"/>
<path opacity="0.4" d="M0.5 30.5H11.5" stroke="white" stroke-width="0.5"/>
<path opacity="0.0971166" d="M0.5 5.5H11.5" stroke="white" stroke-width="0.5"/>
<path opacity="0.795116" d="M0.5 75.5H11.5" stroke="white" stroke-width="0.5"/>
<path opacity="0.45" d="M0.5 35.5H11.5" stroke="white" stroke-width="0.5"/>
<path opacity="0.145927" d="M0.5 10.5H11.5" stroke="white" stroke-width="0.5"/>
<path opacity="0.698736" d="M0.5 80.5H11.5" stroke="white" stroke-width="0.5"/>
</g>
<defs>
<clipPath id="clip0_17_1109">
<rect width="28.7222" height="130" fill="white" transform="translate(0.5 0.5)"/>
</clipPath>
</defs>
</svg>
