<svg width="29" height="131" viewBox="0 0 29 131" fill="none" xmlns="http://www.w3.org/2000/svg">
<g clip-path="url(#clip0_17_1137)">
<path d="M29 65.5H0.333008" stroke="white"/>
<path opacity="0.302673" d="M29 110.5H0.333008" stroke="white"/>
<path opacity="0.3" d="M29 20.5H0.333008" stroke="white"/>
<path opacity="0.89773" d="M29 60.5H18" stroke="white" stroke-width="0.5"/>
<path opacity="0.345938" d="M29 105.5H18" stroke="white" stroke-width="0.5"/>
<path opacity="0.101389" d="M29 125.5H18" stroke="white" stroke-width="0.5"/>
<path opacity="0.0733816" d="M29 130.5H18" stroke="white" stroke-width="0.5"/>
<path opacity="0.7" d="M29 50.5H18" stroke="white" stroke-width="0.5"/>
<path opacity="0.449623" d="M29 95.5H18" stroke="white" stroke-width="0.5"/>
<path opacity="0.253897" d="M29 115.5H18" stroke="white" stroke-width="0.5"/>
<path opacity="0.5" d="M29 40.5H18" stroke="white" stroke-width="0.5"/>
<path opacity="0.25" d="M29 15.5H18" stroke="white" stroke-width="0.5"/>
<path opacity="0.598236" d="M29 85.5H18" stroke="white" stroke-width="0.5"/>
<path opacity="0.35" d="M29 25.5H18" stroke="white" stroke-width="0.5"/>
<path opacity="0.0720949" d="M29 0.5H18" stroke="white" stroke-width="0.5"/>
<path opacity="0.903481" d="M29 70.5H18" stroke="white" stroke-width="0.5"/>
<path opacity="0.8" d="M29 55.5H18" stroke="white" stroke-width="0.5"/>
<path opacity="0.404627" d="M29 100.5H18" stroke="white" stroke-width="0.5"/>
<path opacity="0.147314" d="M29 120.5H18" stroke="white" stroke-width="0.5"/>
<path opacity="0.6" d="M29 45.5H18" stroke="white" stroke-width="0.5"/>
<path opacity="0.501503" d="M29 90.5H18" stroke="white" stroke-width="0.5"/>
<path opacity="0.4" d="M29 30.5H18" stroke="white" stroke-width="0.5"/>
<path opacity="0.0971166" d="M29 5.5H18" stroke="white" stroke-width="0.5"/>
<path opacity="0.795116" d="M29 75.5H18" stroke="white" stroke-width="0.5"/>
<path opacity="0.45" d="M29 35.5H18" stroke="white" stroke-width="0.5"/>
<path opacity="0.145927" d="M29 10.5H18" stroke="white" stroke-width="0.5"/>
<path opacity="0.698736" d="M29 80.5H18" stroke="white" stroke-width="0.5"/>
</g>
<defs>
<clipPath id="clip0_17_1137">
<rect width="28.667" height="130" fill="white" transform="translate(0.333008 0.5)"/>
</clipPath>
</defs>
</svg>
