<svg width="32" height="28" viewBox="0 0 32 28" fill="none" xmlns="http://www.w3.org/2000/svg">
    <g clip-path="url(#clip0_41_2443)">
        <path
            d="M30.2267 12.3786C29.8751 12.3786 29.5199 12.2443 29.2512 11.9756C28.4193 11.1436 27.5137 10.3945 26.5622 9.74667C25.9309 9.31967 25.7652 8.46198 26.1959 7.83068C26.6211 7.19938 27.4787 7.03005 28.1119 7.46441C29.207 8.20614 30.2469 9.06751 31.204 10.0209C31.7432 10.5602 31.7432 11.4344 31.2058 11.9755C30.9353 12.2424 30.5819 12.3786 30.2267 12.3786V12.3786Z"
            fill="white" />
        <path
            d="M1.77267 12.3796C1.42113 12.3796 1.06775 12.2452 0.799031 11.9765C0.257911 11.4391 0.254231 10.5648 0.793511 10.0237C5.87521 4.92174 12.9428 2.67261 20.3141 4.12111C21.0614 4.26835 21.5491 4.99536 21.4037 5.74261C21.2565 6.48987 20.5313 6.96656 19.7822 6.8322C13.3073 5.55672 7.1783 7.52424 2.74815 11.9728C2.47943 12.2434 2.12605 12.3795 1.77267 12.3795V12.3796Z"
            fill="white" />
        <path
            d="M25.2764 17.3483C24.9248 17.3483 24.5696 17.2139 24.3009 16.9452C23.4892 16.1335 22.5745 15.4415 21.5861 14.8911C20.9198 14.5194 20.6824 13.6782 21.0523 13.012C21.4223 12.3457 22.2634 12.1064 22.9315 12.4782C24.1408 13.1537 25.2598 13.9985 26.2537 14.9887C26.7929 15.528 26.7929 16.4022 26.2555 16.9433C25.985 17.2139 25.6297 17.3482 25.2764 17.3482V17.3483Z"
            fill="white" />
        <path
            d="M6.72417 17.3483C6.37079 17.3483 6.01741 17.214 5.74869 16.9434C5.20942 16.4041 5.20942 15.528 5.74869 14.9906C7.72174 13.0194 10.1531 11.674 12.7795 11.1034C13.5231 10.9396 14.2611 11.4126 14.4231 12.1562C14.5869 12.9016 14.1139 13.6378 13.3703 13.7998C11.2592 14.2599 9.29907 15.3477 7.70149 16.9434C7.43093 17.214 7.07571 17.3483 6.72417 17.3483Z"
            fill="white" />
        <path
            d="M16.0003 25.7781C14.1892 25.7781 12.6009 24.5597 12.1426 22.8167C11.9493 22.0805 12.391 21.324 13.1272 21.1308C13.8579 20.9431 14.6199 21.3774 14.8132 22.1155C14.9549 22.6547 15.4316 23.0173 16.0003 23.0173C16.6905 23.0173 17.2519 22.456 17.2519 21.7658C17.2519 21.197 16.8893 20.7222 16.35 20.5786C15.6138 20.3854 15.1702 19.6289 15.3653 18.8927C15.5586 18.1547 16.3242 17.7221 17.0512 17.908C18.7942 18.3663 20.0127 19.951 20.0127 21.7658C20.0127 23.9781 18.2126 25.7781 16.0003 25.7781L16.0003 25.7781Z"
            fill="white" />
        <path
            d="M4.07817 27.6487C3.72479 27.6487 3.37141 27.5143 3.10269 27.2438C2.56342 26.7045 2.56342 25.8302 3.10269 25.291L27.8841 0.756442C28.4234 0.217172 29.2976 0.217172 29.8369 0.756442C30.3762 1.29571 30.3762 2.16997 29.8369 2.70924L5.05365 27.2437C4.78493 27.5143 4.43155 27.6487 4.07817 27.6487V27.6487Z"
            fill="white" />
    </g>
    <defs>
        <clipPath id="clip0_41_2443">
            <rect width="31.2176" height="27.2967" fill="white"
                transform="translate(0.391113 0.35199)" />
        </clipPath>
    </defs>
</svg>