<svg width="16" height="16" viewBox="0 0 16 16" fill="none" xmlns="http://www.w3.org/2000/svg">
    <path fill-rule="evenodd" clip-rule="evenodd"
        d="M12.772 0H2.83823C2.6682 0.00196 2.50453 0.06491 2.37702 0.17739C3.4098 0.54075 4.14149 1.46573 4.25735 2.55441C4.2682 2.64871 4.2682 2.74394 4.25735 2.83823V14.9007C4.25666 15.1778 4.41739 15.43 4.66889 15.5464C4.921 15.6625 5.21764 15.6209 5.42812 15.44L7.45036 13.7087L9.4726 15.44C9.73813 15.6671 10.1295 15.6671 10.395 15.44L12.4173 13.7087L14.4395 15.44C14.568 15.5499 14.7316 15.6103 14.9007 15.6103C15.0034 15.6096 15.1048 15.5878 15.1987 15.5464C15.4502 15.43 15.611 15.1778 15.6103 14.9007V2.83823C15.6103 1.27072 14.3395 0 12.772 0H12.772ZM12.0625 9.93382H7.80514C7.41326 9.93382 7.09558 9.61614 7.09558 9.22426C7.09558 8.83238 7.41326 8.5147 7.80514 8.5147H12.0625C12.4544 8.5147 12.772 8.83238 12.772 9.22426C12.772 9.61614 12.4544 9.93382 12.0625 9.93382ZM12.0625 7.09558H7.80514C7.41326 7.09558 7.09558 6.7779 7.09558 6.38602C7.09558 5.99414 7.41326 5.67646 7.80514 5.67646H12.0625C12.4544 5.67646 12.772 5.99414 12.772 6.38602C12.772 6.7779 12.4544 7.09558 12.0625 7.09558ZM12.0625 4.25735H7.80514C7.41326 4.25735 7.09558 3.93967 7.09558 3.54779C7.09558 3.15591 7.41326 2.83823 7.80514 2.83823H12.0625C12.4544 2.83823 12.772 3.15591 12.772 3.54779C12.772 3.93967 12.4544 4.25735 12.0625 4.25735ZM2.83823 2.83823V8.5147H0.70956C0.31768 8.5147 0 8.19702 0 7.80514V2.83823C0 2.73889 0 2.64665 0 2.55441C0.07838 1.77065 0.77727 1.19883 1.56103 1.27721C2.34479 1.35559 2.91661 2.05448 2.83823 2.83824V2.83823Z"
        fill="white" />
</svg>