<svg width="17" height="22" viewBox="0 0 17 22" fill="none" xmlns="http://www.w3.org/2000/svg">
    <path
        d="M5.28571 1V3.14286M8.5 1V3.14286M11.7143 1V3.14286M9.57143 7.42857H5.28571M11.7143 11.7143H5.28571M4.42857 20.2857H12.5714C13.7715 20.2857 14.3716 20.2857 14.83 20.0521C15.2332 19.8468 15.561 19.5189 15.7664 19.1157C16 18.6574 16 18.0573 16 16.8571V5.5C16 4.29989 16 3.69983 15.7664 3.24145C15.561 2.83824 15.2332 2.51043 14.83 2.30499C14.3716 2.07143 13.7715 2.07143 12.5714 2.07143H4.42857C3.22846 2.07143 2.6284 2.07143 2.17002 2.30499C1.76681 2.51043 1.439 2.83824 1.23356 3.24145C1 3.69983 1 4.29988 1 5.5V16.8571C1 18.0573 1 18.6574 1.23356 19.1157C1.439 19.5189 1.76681 19.8468 2.17002 20.0521C2.6284 20.2857 3.22845 20.2857 4.42857 20.2857Z"
        stroke="white" stroke-width="2" stroke-linecap="round" stroke-linejoin="round" />
</svg>