<svg width="18" height="18" viewBox="0 0 18 18" fill="none" xmlns="http://www.w3.org/2000/svg">
    <g clip-path="url(#clip0_17_775)">
        <path
            d="M2.67568 12.5817C2.01387 13.2435 1.09136 16.2717 0.991079 16.6127C0.950969 16.7731 1.03119 16.9536 1.21168 16.9937C1.23174 16.9937 1.27185 17.0138 1.2919 17.0138C1.31196 17.0138 1.35206 17.0138 1.37212 16.9937C1.71305 16.8934 4.74132 15.9709 5.40313 15.3091C6.16521 14.547 6.16521 13.3237 5.40313 12.5817C4.6611 11.8396 3.43776 11.8396 2.67568 12.5817Z"
            fill="white" />
        <path fill-rule="evenodd" clip-rule="evenodd"
            d="M16.8142 1.55133C16.7741 1.37084 16.6337 1.25051 16.4532 1.19035C15.6711 1.02991 14.8488 0.969755 14.0466 0.989805C11.0384 0.989805 9.23347 2.59418 7.88981 4.71999H4.86154C4.34012 4.74005 3.87886 5.04087 3.61815 5.48207L2.17421 8.36996C2.1341 8.47023 2.11405 8.57051 2.09399 8.69084C2.09399 9.07188 2.41487 9.39277 2.79591 9.39277H5.82418L5.18243 10.0345C4.82145 10.3955 4.82145 10.9771 5.18243 11.3581L6.66648 12.8422C7.02746 13.2032 7.60905 13.2032 7.99009 12.8422L8.6519 12.1804V15.2086C8.6519 15.5897 8.95272 15.9106 9.35382 15.9106C9.4541 15.9106 9.55437 15.8905 9.65464 15.8504L12.5225 14.4064C12.9837 14.1457 13.2645 13.6845 13.2846 13.1631V10.0947C15.4104 8.75101 17.0147 6.94608 17.0147 3.95792C17.0348 3.15573 16.9746 2.35354 16.8142 1.55135L16.8142 1.55133ZM13.2845 5.88315C12.6428 5.88315 12.1214 5.36173 12.1214 4.71998C12.1214 4.07823 12.6428 3.5568 13.2845 3.5568C13.9263 3.5568 14.4477 4.07822 14.4477 4.71998C14.4477 5.36173 13.9263 5.88315 13.2845 5.88315Z"
            fill="white" />
    </g>
    <defs>
        <clipPath id="clip0_17_775">
            <rect width="16.0375" height="16.0276" fill="white"
                transform="translate(0.980957 0.986084)" />
        </clipPath>
    </defs>
</svg>