<svg width="20" height="20" viewBox="0 0 20 20" fill="none" xmlns="http://www.w3.org/2000/svg">
    <path fill-rule="evenodd" clip-rule="evenodd"
        d="M19.4279 17.7394L14.3254 12.8195C16.9418 9.38595 16.3564 4.49481 13.0037 1.77564C11.5842 0.629446 9.81554 0.00293558 7.99106 3.55778e-05C5.5779 -0.00717442 3.29201 1.08181 1.77717 2.96029C0.44199 4.60242 -0.181359 6.71015 0.0458605 8.81436C0.262821 10.9207 1.3133 12.8527 2.96321 14.1799C4.38405 15.3264 6.15428 15.9524 7.97999 15.9541C9.73086 15.9514 11.4325 15.3743 12.8238 14.3114L17.9361 19.2299C18.134 19.4367 18.4081 19.5533 18.6945 19.5523C18.9679 19.5528 19.2308 19.4471 19.4279 19.2576C19.6297 19.0635 19.7457 18.797 19.7504 18.5172C19.7533 18.2248 19.6368 17.9439 19.4279 17.7394ZM13.8451 7.99784C13.8323 11.2191 11.2261 13.8283 8.0049 13.845C4.77279 13.845 2.15313 11.2272 2.15084 7.99646C2.15542 4.76659 4.77504 2.15069 8.00491 2.1507C11.2299 2.15832 13.8413 4.77284 13.8451 7.99785L13.8451 7.99784Z"
        fill="white" />
</svg>