<svg width="22" height="21" viewBox="0 0 22 21" fill="none" xmlns="http://www.w3.org/2000/svg">
<path fill-rule="evenodd" clip-rule="evenodd" d="M20.9927 8.85034C21.1198 8.39569 20.8543 7.92407 20.3996 7.79703L18.9281 7.38578C18.8567 7.19414 18.7784 7.0053 18.6945 6.81786L19.454 5.49318C19.5464 5.33279 19.5842 5.14675 19.5617 4.96303C19.5049 4.49451 19.0791 4.16073 18.6105 4.21746L17.1012 4.4049C16.9613 4.25243 16.8102 4.10695 16.6578 3.96287L16.8536 2.46054C16.8616 2.31266 16.8328 2.1651 16.7697 2.0311C16.5581 1.58923 16.029 1.40162 15.5863 1.61146L14.2658 2.35703C14.1091 2.28429 13.9525 2.21715 13.793 2.15001C13.7584 2.12212 13.7214 2.09731 13.6825 2.07587L13.3034 0.649084C13.2546 0.470324 13.1496 0.311954 13.0041 0.197264C12.6319 -0.0929758 12.0951 -0.0272858 11.8039 0.344144L10.8625 1.54153C10.6569 1.53314 10.4512 1.53174 10.2456 1.54153L9.314 0.332954C9.20194 0.186534 9.04533 0.0804942 8.86778 0.0308142C8.41313 -0.0963158 7.94152 0.169244 7.81447 0.623914L7.40462 2.09407C7.21578 2.16401 7.03114 2.24095 6.84509 2.32208L5.50922 1.55833C5.34886 1.46587 5.16279 1.42807 4.97906 1.45062C4.75416 1.47789 4.54934 1.59349 4.40974 1.77192C4.27015 1.95035 4.20724 2.17697 4.23489 2.40182L4.42373 3.92233C4.27266 4.06221 4.12858 4.20209 3.9873 4.35876L2.4724 4.15313C2.28974 4.129 2.10419 4.16483 1.94365 4.25524C1.74574 4.36637 1.60016 4.55166 1.53901 4.77025C1.47787 4.98884 1.50619 5.22277 1.61772 5.42046L2.36748 6.75213C2.28216 6.93957 2.20103 7.12701 2.12828 7.31865L0.653929 7.71032C0.475279 7.75778 0.317089 7.86243 0.203509 8.00827C0.062609 8.18586 -0.00182102 8.41222 0.024419 8.63739C0.050659 8.86256 0.165429 9.06803 0.343389 9.20846L1.54777 10.1555C1.53938 10.3597 1.53798 10.5611 1.54777 10.764L0.329409 11.7026C0.259829 11.7574 0.198989 11.8225 0.148959 11.8956C-0.116551 12.2861 -0.015071 12.8179 0.375569 13.0832C0.450359 13.1339 0.533099 13.1717 0.620359 13.1951L2.10031 13.6148C2.17025 13.8036 2.24718 13.9896 2.32972 14.1743L1.56877 15.5046C1.34482 15.8926 1.45976 16.3879 1.83174 16.6376C2.00093 16.7546 2.20618 16.8076 2.41086 16.7873L3.93138 16.5984C4.07126 16.7453 4.21114 16.8866 4.35942 17.0251L4.16219 18.5414C4.12036 18.8625 4.26326 19.1797 4.53148 19.3611C4.79996 19.5386 5.14527 19.5504 5.42532 19.3919L6.75 18.6435C6.94164 18.733 7.13468 18.8156 7.33191 18.8897L7.72218 20.3585C7.77522 20.5573 7.89845 20.7302 8.06908 20.8453C8.16458 20.9051 8.27114 20.945 8.38242 20.9628C8.69833 21.0253 9.02263 20.9054 9.22171 20.6522L10.1547 19.466C10.3603 19.473 10.566 19.473 10.7716 19.466L11.7018 20.6732C11.7566 20.7428 11.8217 20.8036 11.8948 20.8536C11.9702 20.9037 12.0527 20.9419 12.1396 20.9669C12.5927 21.0953 13.0641 20.8324 13.1929 20.3794L13.6028 18.9149C13.8 18.8421 13.9959 18.7638 14.1875 18.6771L15.5178 19.4394C15.6782 19.5317 15.8642 19.5695 16.0479 19.5472C16.5165 19.4903 16.8502 19.0645 16.7935 18.596L16.6089 17.116C16.6317 17.0836 16.6527 17.05 16.6718 17.0153C16.7991 16.895 16.9194 16.7691 17.0397 16.6418L18.5434 16.8376C18.7267 16.8614 18.9127 16.825 19.0736 16.7341C19.2712 16.623 19.4164 16.4379 19.4773 16.2196C19.5382 16.0012 19.5097 15.7676 19.3981 15.5703L18.6525 14.2484C18.7393 14.0596 18.8218 13.8694 18.8945 13.6777L20.3479 13.2902C20.5266 13.2428 20.6848 13.1381 20.7983 12.9923C21.091 12.6222 21.0284 12.085 20.6585 11.7921L19.4723 10.8591C19.4807 10.6507 19.4834 10.4394 19.4723 10.2352L20.6822 9.30221C20.833 9.19023 20.9423 9.03129 20.9928 8.85039L20.9927 8.85034ZM11.8291 17.6307C10.9856 17.7834 10.1219 17.7857 9.27761 17.6377C9.11395 17.6097 8.95309 17.5734 8.79222 17.5342C8.12624 17.3689 7.48713 17.1099 6.89403 16.7648C6.59167 16.5911 6.30229 16.3957 6.02816 16.1801C5.47153 15.7527 4.98048 15.2461 4.57059 14.6764C4.53142 14.6205 4.48526 14.5687 4.44749 14.5114C4.37195 14.3967 4.30761 14.275 4.23767 14.1561C3.97723 13.7067 3.76573 13.2307 3.60681 12.7363L10.1071 11.4396L14.5414 16.5424C13.7621 17.0586 12.8905 17.4196 11.9745 17.6055L11.8291 17.6307ZM4.83498 5.97297C5.251 5.44522 5.73824 4.97776 6.28276 4.58395C6.35409 4.53219 6.42263 4.47344 6.49398 4.42309C6.56532 4.37273 6.67023 4.32098 6.75695 4.26782C7.35516 3.91243 8.00156 3.64529 8.67614 3.47469C8.95712 3.3997 9.24258 3.3427 9.53081 3.30403C10.219 3.20985 10.9171 3.21503 11.6038 3.31942C11.72 3.3376 11.8388 3.34879 11.955 3.37257L11.9885 3.38096L9.81757 9.67564L3.26971 10.9807C3.23716 10.5082 3.25122 10.0336 3.31169 9.56374C3.33546 9.39309 3.35505 9.22103 3.38862 9.05038C3.42219 8.87973 3.47255 8.71746 3.5187 8.5524C3.678 7.98571 3.90533 7.4404 4.19573 6.92837C4.38426 6.59494 4.59944 6.27731 4.83919 5.97857L4.83498 5.97297ZM16.2325 14.9254C16.1332 15.0541 16.0297 15.18 15.922 15.3017L11.5647 10.2953L13.7286 4.01322C13.8587 4.07896 13.9874 4.1531 14.1147 4.22164C14.4153 4.39446 14.7033 4.58846 14.9764 4.80215C15.4624 5.18296 15.8977 5.62437 16.2717 6.11564C16.4599 6.36172 16.6314 6.62015 16.7851 6.88919C17.1651 7.53702 17.4417 8.24024 17.6048 8.97343C17.6145 9.01959 17.6299 9.06575 17.6397 9.11331C17.6495 9.16087 17.6509 9.20563 17.6579 9.25319C17.8085 10.1088 17.8028 10.9846 17.6411 11.8382C17.6187 11.9599 17.5894 12.0788 17.5614 12.1977C17.391 12.8799 17.1229 13.5338 16.7655 14.1393C16.6073 14.4144 16.4307 14.6784 16.2367 14.9296L16.2325 14.9254Z" fill="white"/>
</svg>
