<svg width="50" height="41" viewBox="0 0 50 41" fill="none" xmlns="http://www.w3.org/2000/svg">
    <path fill-rule="evenodd" clip-rule="evenodd"
        d="M34.1907 5.53973C34.2703 5.25518 34.1041 4.96001 33.8195 4.8805L32.8985 4.62312C32.8539 4.50318 32.8049 4.38499 32.7523 4.26768L33.2277 3.4386C33.2855 3.33822 33.3092 3.22179 33.2951 3.1068C33.2596 2.81357 32.993 2.60467 32.6998 2.64018L31.7552 2.75749C31.6676 2.66206 31.5731 2.57101 31.4776 2.48084L31.6002 1.54058C31.6052 1.44803 31.5872 1.35567 31.5477 1.27181C31.4152 0.995258 31.0841 0.877839 30.807 1.00917L29.9806 1.4758C29.8825 1.43027 29.7845 1.38825 29.6847 1.34623C29.663 1.32877 29.6399 1.31325 29.6155 1.29983L29.3783 0.40685C29.3477 0.294971 29.282 0.195852 29.1909 0.124072C28.958 -0.0575791 28.622 -0.016466 28.4398 0.215999L27.8506 0.965404C27.7219 0.960153 27.5932 0.959277 27.4645 0.965404L26.8814 0.208996C26.8113 0.117356 26.7133 0.0509897 26.6022 0.0198968C26.3176 -0.0596695 26.0224 0.106535 25.9429 0.391097L25.6864 1.31122C25.5682 1.35499 25.4527 1.40315 25.3362 1.45392L24.5002 0.975918C24.3998 0.918051 24.2833 0.894393 24.1683 0.908506C24.0276 0.925574 23.8994 0.997924 23.812 1.1096C23.7247 1.22127 23.6853 1.3631 23.7026 1.50383L23.8208 2.45546C23.7262 2.54301 23.6361 2.63056 23.5476 2.72861L22.5995 2.59991C22.4852 2.58481 22.3691 2.60724 22.2686 2.66382C22.1447 2.73337 22.0536 2.84934 22.0153 2.98615C21.9771 3.12296 21.9948 3.26936 22.0646 3.39309L22.5338 4.22654C22.4804 4.34385 22.4297 4.46116 22.3841 4.5811L21.4614 4.82623C21.3496 4.85594 21.2506 4.92144 21.1795 5.01271C21.0913 5.12386 21.051 5.26553 21.0674 5.40646C21.0838 5.54738 21.1557 5.67598 21.267 5.76387L22.0208 6.35656C22.0156 6.48438 22.0147 6.61045 22.0208 6.7374L21.2583 7.32484C21.2147 7.35917 21.1767 7.3999 21.1454 7.44566C20.9792 7.69005 21.0427 8.0229 21.2872 8.18893C21.334 8.22065 21.3858 8.24432 21.4404 8.25897L22.3666 8.52161C22.4104 8.6398 22.4586 8.75624 22.5102 8.8718L22.034 9.70438C21.8938 9.94726 21.9657 10.2572 22.1985 10.4135C22.3044 10.4867 22.4329 10.5199 22.561 10.5072L23.5126 10.389C23.6002 10.4809 23.6877 10.5693 23.7805 10.656L23.6571 11.605C23.6309 11.806 23.7203 12.0045 23.8882 12.1181C24.0563 12.2291 24.2724 12.2366 24.4476 12.1373L25.2767 11.6689C25.3967 11.725 25.5175 11.7766 25.6409 11.823L25.8852 12.7423C25.9184 12.8667 25.9955 12.9749 26.1023 13.0469C26.162 13.0844 26.2287 13.1094 26.2984 13.1205C26.4961 13.1596 26.6991 13.0845 26.8237 12.9261L27.4076 12.1837C27.5363 12.1881 27.665 12.1881 27.7937 12.1837L28.3759 12.9392C28.4102 12.9828 28.4509 13.0209 28.4967 13.0522C28.5438 13.0835 28.5955 13.1074 28.6499 13.1231C28.9335 13.2034 29.2285 13.0389 29.3091 12.7554L29.5656 11.8388C29.6891 11.7933 29.8117 11.7442 29.9316 11.6899L30.7642 12.1671C30.8646 12.2248 30.981 12.2485 31.096 12.2345C31.3892 12.1989 31.5981 11.9324 31.5626 11.6392L31.447 10.7129C31.4613 10.6926 31.4745 10.6716 31.4864 10.6499C31.5661 10.5746 31.6414 10.4958 31.7167 10.4161L32.6578 10.5387C32.7725 10.5535 32.8889 10.5308 32.9896 10.4739C33.1133 10.4044 33.2042 10.2885 33.2423 10.1519C33.2804 10.0152 33.2626 9.86902 33.1927 9.74553L32.7261 8.91821C32.7804 8.80002 32.832 8.68096 32.8776 8.56102L33.7872 8.31851C33.899 8.28881 33.998 8.22331 34.0691 8.13204C34.2522 7.90041 34.213 7.56418 33.9815 7.38088L33.2391 6.79694C33.2444 6.6665 33.2461 6.5343 33.2391 6.40648L33.9964 5.82254C34.0908 5.75246 34.1592 5.65298 34.1908 5.53977L34.1907 5.53973ZM28.4553 11.0349C27.9275 11.1304 27.3869 11.1319 26.8585 11.0392C26.7561 11.0217 26.6554 10.999 26.5547 10.9745C26.1379 10.871 25.7379 10.7089 25.3667 10.4929C25.1774 10.3842 24.9963 10.2619 24.8248 10.127C24.4764 9.85949 24.1691 9.54242 23.9125 9.18587C23.888 9.15086 23.8591 9.11846 23.8355 9.08257C23.7882 9.01078 23.7479 8.93461 23.7042 8.8602C23.5412 8.57896 23.4088 8.28106 23.3093 7.97159L27.3776 7.16003L30.1529 10.3538C29.6652 10.6768 29.1197 10.9027 28.5464 11.0191L28.4553 11.0349ZM24.0779 3.73898C24.3383 3.40868 24.6433 3.11612 24.9841 2.86964C25.0287 2.83725 25.0716 2.80048 25.1163 2.76897C25.1609 2.73745 25.2266 2.70506 25.2808 2.67179C25.6552 2.44936 26.0598 2.28217 26.482 2.1754C26.6578 2.12846 26.8365 2.09279 27.0169 2.06859C27.4476 2.00964 27.8846 2.01288 28.3143 2.07822C28.387 2.0896 28.4614 2.0966 28.5341 2.11148L28.5551 2.11673L27.1964 6.05635L23.0983 6.87317C23.0779 6.57741 23.0867 6.28036 23.1246 5.98632C23.1394 5.87952 23.1517 5.77183 23.1727 5.66503C23.1937 5.55822 23.2252 5.45666 23.2541 5.35336C23.3538 4.99869 23.4961 4.6574 23.6779 4.33693C23.7958 4.12825 23.9305 3.92946 24.0806 3.74249L24.0779 3.73898ZM31.2114 9.34207C31.1492 9.42261 31.0845 9.5014 31.017 9.57757L28.2899 6.44425L29.6443 2.51251C29.7257 2.55366 29.8063 2.60006 29.8859 2.64296C30.0741 2.75112 30.2543 2.87253 30.4252 3.00628C30.7294 3.24461 31.0018 3.52087 31.2359 3.82834C31.3537 3.98236 31.4611 4.1441 31.5572 4.31248C31.7951 4.71794 31.9682 5.15806 32.0702 5.61694C32.0764 5.64582 32.086 5.67472 32.0921 5.70448C32.0982 5.73425 32.0991 5.76226 32.1035 5.79203C32.1977 6.32752 32.1942 6.87567 32.093 7.4099C32.079 7.48607 32.0606 7.56048 32.0431 7.63489C31.9364 8.06183 31.7687 8.47111 31.5449 8.85005C31.446 9.02223 31.3354 9.18749 31.214 9.34469L31.2114 9.34207Z"
        fill="white" />
    <path fill-rule="evenodd" clip-rule="evenodd"
        d="M27.6207 24.8044C27.788 24.2062 27.4386 23.5857 26.8403 23.4185L24.9041 22.8774C24.8102 22.6252 24.7071 22.3767 24.5967 22.1301L25.5961 20.3871C25.7176 20.1761 25.7674 19.9313 25.7378 19.6896C25.6631 19.0731 25.1028 18.6339 24.4863 18.7085L22.5003 18.9552C22.3163 18.7546 22.1175 18.5631 21.9168 18.3736L22.1745 16.3968C22.185 16.2022 22.1471 16.0081 22.0641 15.8317C21.7857 15.2503 21.0895 15.0035 20.507 15.2796L18.7695 16.2606C18.5634 16.1649 18.3572 16.0766 18.1474 15.9882C18.1019 15.9515 18.0532 15.9189 18.002 15.8907L17.5032 14.0133C17.4389 13.7781 17.3009 13.5697 17.1093 13.4188C16.6197 13.0369 15.9133 13.1233 15.5301 13.6121L14.2915 15.1876C14.0209 15.1765 13.7503 15.1747 13.4798 15.1876L12.254 13.5973C12.1065 13.4047 11.9005 13.2652 11.6668 13.1998C11.0686 13.0325 10.4481 13.3819 10.2809 13.9802L9.74164 15.9146C9.49316 16.0066 9.25021 16.1079 9.00541 16.2146L7.24769 15.2097C7.03669 15.088 6.79186 15.0383 6.55011 15.068C6.25419 15.1038 5.98469 15.2559 5.801 15.4907C5.61733 15.7255 5.53456 16.0237 5.57094 16.3195L5.81941 18.3202C5.62063 18.5043 5.43106 18.6883 5.24516 18.8945L3.25187 18.6239C3.01153 18.5921 2.76738 18.6393 2.55615 18.7582C2.29574 18.9045 2.10419 19.1483 2.02373 19.4359C1.94328 19.7235 1.98054 20.0313 2.12729 20.2914L3.11382 22.0436C3.00156 22.2903 2.89481 22.5369 2.79908 22.7891L0.859148 23.3044C0.624082 23.3669 0.415937 23.5046 0.26649 23.6964C0.0810953 23.9301 -0.00368103 24.228 0.0308453 24.5242C0.0653716 24.8205 0.216385 25.0909 0.450543 25.2756L2.03525 26.5217C2.02421 26.7904 2.02237 27.0555 2.03525 27.3223L0.432148 28.5574C0.340595 28.6295 0.260543 28.7152 0.194714 28.8114C-0.154642 29.3252 -0.0211152 30.0249 0.492885 30.374C0.591293 30.4407 0.700161 30.4904 0.814977 30.5212L2.76228 31.0734C2.85431 31.3219 2.95553 31.5667 3.06413 31.8096L2.06288 33.56C1.76821 34.0706 1.91945 34.7222 2.4089 35.0508C2.63152 35.2048 2.90158 35.2746 3.1709 35.2478L5.17158 34.9993C5.35563 35.1925 5.53969 35.3784 5.73479 35.5607L5.47528 37.5558C5.42024 37.9783 5.60827 38.3957 5.96119 38.6344C6.31445 38.8679 6.76881 38.8835 7.13729 38.6749L8.88029 37.6902C9.13245 37.808 9.38645 37.9166 9.64596 38.0141L10.1595 39.9467C10.2293 40.2083 10.3914 40.4358 10.6159 40.5872C10.7416 40.6659 10.8818 40.7185 11.0282 40.7418C11.4439 40.8242 11.8706 40.6663 12.1325 40.3332L13.3602 38.7724C13.6307 38.7816 13.9013 38.7816 14.1719 38.7724L15.3958 40.3608C15.468 40.4524 15.5536 40.5324 15.6498 40.5982C15.749 40.6641 15.8576 40.7144 15.9719 40.7473C16.5681 40.9162 17.1883 40.5702 17.3579 39.9743L17.8971 38.0472C18.1567 37.9515 18.4143 37.8485 18.6665 37.7344L20.4169 38.7375C20.628 38.8589 20.8727 38.9086 21.1144 38.8792C21.7309 38.8044 22.1701 38.2441 22.0954 37.6276L21.8525 35.6803C21.8825 35.6377 21.9101 35.5934 21.9353 35.5478C22.1028 35.3895 22.2611 35.2239 22.4194 35.0564L24.398 35.314C24.6391 35.3452 24.8839 35.2974 25.0955 35.1778C25.3555 35.0317 25.5466 34.7881 25.6268 34.5008C25.7069 34.2135 25.6694 33.9061 25.5226 33.6465L24.5415 31.9072C24.6557 31.6587 24.7643 31.4084 24.86 31.1562L26.7723 30.6464C27.0074 30.584 27.2155 30.4463 27.365 30.2544C27.75 29.7674 27.6676 29.0605 27.1809 28.6752L25.6201 27.4475C25.6312 27.1733 25.6348 26.8954 25.6201 26.6266L27.2122 25.399C27.4106 25.2517 27.5543 25.0425 27.6208 24.8045L27.6207 24.8044ZM15.5633 36.3573C14.4535 36.5582 13.317 36.5613 12.2061 36.3665C11.9908 36.3297 11.7791 36.2819 11.5675 36.2303C10.6912 36.0129 9.85025 35.672 9.06986 35.218C8.67202 34.9894 8.29125 34.7323 7.93055 34.4487C7.19815 33.8863 6.55203 33.2197 6.0127 32.4701C5.96116 32.3965 5.90042 32.3284 5.85073 32.2529C5.75133 32.102 5.66667 31.9418 5.57465 31.7854C5.23196 31.1942 4.95367 30.5678 4.74457 29.9172L13.2976 28.2111L19.1321 34.9254C18.1068 35.6046 16.96 36.0795 15.7547 36.3242L15.5633 36.3573ZM6.36057 21.0184C6.90797 20.324 7.54907 19.7089 8.26555 19.1907C8.3594 19.1226 8.44959 19.0453 8.54347 18.9791C8.63734 18.9128 8.77538 18.8447 8.88948 18.7748C9.6766 18.3072 10.5271 17.9557 11.4147 17.7312C11.7844 17.6325 12.16 17.5575 12.5393 17.5066C13.4448 17.3827 14.3634 17.3895 15.267 17.5269C15.4198 17.5508 15.5762 17.5655 15.729 17.5968L15.7731 17.6079L12.9166 25.8903L4.30101 27.6076C4.25818 26.9858 4.27668 26.3613 4.35624 25.7431C4.38752 25.5186 4.4133 25.2922 4.45747 25.0676C4.50164 24.8431 4.5679 24.6296 4.62863 24.4124C4.83823 23.6667 5.13735 22.9492 5.51945 22.2755C5.76752 21.8368 6.05065 21.4188 6.36611 21.0258L6.36057 21.0184ZM21.3574 32.7978C21.2267 32.9671 21.0905 33.1328 20.9488 33.2929L15.2155 26.7055L18.0628 18.4396C18.234 18.5261 18.4033 18.6237 18.5708 18.7139C18.9663 18.9413 19.3452 19.1965 19.7045 19.4777C20.344 19.9788 20.9168 20.5596 21.4089 21.206C21.6566 21.5298 21.8822 21.8698 22.0844 22.2238C22.5845 23.0762 22.9484 24.0015 23.1629 24.9662C23.1758 25.027 23.1961 25.0877 23.2089 25.1503C23.2218 25.2129 23.2237 25.2718 23.2329 25.3343C23.431 26.4601 23.4235 27.6125 23.2108 28.7357C23.1813 28.8958 23.1427 29.0522 23.1059 29.2087C22.8817 30.1063 22.5289 30.9667 22.0586 31.7634C21.8505 32.1254 21.6181 32.4728 21.3629 32.8033L21.3574 32.7978Z"
        fill="white" />
    <path fill-rule="evenodd" clip-rule="evenodd"
        d="M49.9702 18.836C50.0895 18.4091 49.8402 17.9664 49.4134 17.8471L48.0319 17.461C47.9649 17.2811 47.8914 17.1038 47.8126 16.9279L48.5257 15.6843C48.6124 15.5337 48.6479 15.359 48.6268 15.1866C48.5734 14.7467 48.1737 14.4334 47.7338 14.4866L46.3168 14.6626C46.1855 14.5195 46.0437 14.3829 45.9006 14.2476L46.0844 12.8372C46.0919 12.6984 46.0648 12.5599 46.0056 12.4341C45.807 12.0193 45.3103 11.8431 44.8946 12.0401L43.655 12.7401C43.5079 12.6718 43.3608 12.6087 43.2111 12.5457C43.1786 12.5195 43.1439 12.4962 43.1074 12.4761L42.7515 11.1366C42.7056 10.9688 42.6071 10.8201 42.4705 10.7125C42.1211 10.44 41.6171 10.5017 41.3437 10.8504L40.4599 11.9745C40.2669 11.9666 40.0739 11.9653 39.8808 11.9745L39.0062 10.8399C38.901 10.7024 38.754 10.6029 38.5873 10.5562C38.1605 10.4369 37.7177 10.6862 37.5985 11.113L37.2137 12.4932C37.0364 12.5589 36.8631 12.6311 36.6884 12.7073L35.4343 11.9902C35.2838 11.9034 35.1091 11.868 34.9366 11.8891C34.7255 11.9147 34.5332 12.0233 34.4021 12.1908C34.2711 12.3583 34.212 12.571 34.238 12.7821L34.4153 14.2096C34.2734 14.3409 34.1382 14.4722 34.0055 14.6193L32.5833 14.4262C32.4119 14.4036 32.2377 14.4372 32.087 14.5221C31.9012 14.6264 31.7645 14.8004 31.7071 15.0056C31.6497 15.2108 31.6763 15.4304 31.781 15.616L32.4849 16.8662C32.4048 17.0421 32.3286 17.2181 32.2603 17.398L30.8762 17.7657C30.7085 17.8103 30.5599 17.9085 30.4533 18.0454C30.321 18.2122 30.2606 18.4247 30.2852 18.6361C30.3098 18.8474 30.4176 19.0403 30.5846 19.1722L31.7153 20.0612C31.7074 20.2529 31.7061 20.442 31.7153 20.6325L30.5715 21.5136C30.5062 21.5651 30.4491 21.6262 30.4021 21.6949C30.1528 22.0614 30.2481 22.5607 30.6149 22.8098C30.6851 22.8573 30.7627 22.8928 30.8447 22.9148L32.234 23.3088C32.2997 23.4861 32.3719 23.6607 32.4494 23.8341L31.735 25.0829C31.5248 25.4473 31.6327 25.9122 31.9819 26.1466C32.1407 26.2565 32.3334 26.3063 32.5256 26.2871L33.953 26.1099C34.0844 26.2477 34.2157 26.3804 34.3549 26.5104L34.1697 27.9339C34.1305 28.2353 34.2646 28.5331 34.5164 28.7034C34.7685 28.87 35.0926 28.8812 35.3555 28.7323L36.5992 28.0298C36.7791 28.1138 36.9603 28.1913 37.1454 28.2609L37.5118 29.6398C37.5616 29.8264 37.6773 29.9888 37.8375 30.0968C37.9272 30.1529 38.0272 30.1904 38.1317 30.2071C38.4282 30.2658 38.7327 30.1532 38.9196 29.9155L39.7955 28.8019C39.9885 28.8085 40.1816 28.8085 40.3746 28.8019L41.2479 29.9352C41.2994 30.0005 41.3605 30.0577 41.4291 30.1046C41.4999 30.1516 41.5774 30.1875 41.6589 30.211C42.0843 30.3315 42.5268 30.0847 42.6478 29.6595L43.0325 28.2845C43.2177 28.2162 43.4016 28.1427 43.5815 28.0613L44.8303 28.777C44.9809 28.8636 45.1556 28.8991 45.328 28.8781C45.7679 28.8248 46.0812 28.425 46.028 27.9851L45.8546 26.5958C45.876 26.5653 45.8958 26.5338 45.9137 26.5012C46.0332 26.3883 46.1462 26.2701 46.2591 26.1506L47.6708 26.3344C47.8429 26.3567 48.0175 26.3226 48.1685 26.2373C48.354 26.133 48.4904 25.9591 48.5475 25.7542C48.6047 25.5492 48.5779 25.3299 48.4732 25.1447L47.7732 23.9037C47.8547 23.7264 47.9321 23.5478 48.0004 23.3679L49.3648 23.0041C49.5326 22.9596 49.6811 22.8613 49.7877 22.7244C50.0624 22.377 50.0037 21.8726 49.6564 21.5977L48.5428 20.7218C48.5507 20.5261 48.5533 20.3278 48.5428 20.1361L49.6787 19.2602C49.8203 19.1551 49.9228 19.0058 49.9702 18.836L49.9702 18.836ZM41.3674 27.0787C40.5756 27.222 39.7647 27.2242 38.9721 27.0853C38.8185 27.059 38.6675 27.0249 38.5164 26.9881C37.8912 26.833 37.2912 26.5898 36.7344 26.2658C36.4506 26.1027 36.1789 25.9193 35.9215 25.7169C35.399 25.3157 34.938 24.84 34.5532 24.3052C34.5164 24.2527 34.4731 24.2041 34.4376 24.1503C34.3667 24.0426 34.3063 23.9283 34.2406 23.8167C33.9961 23.3949 33.7976 22.948 33.6484 22.4838L39.7508 21.2665L43.9137 26.0571C43.1821 26.5416 42.3639 26.8805 41.504 27.0551L41.3674 27.0787ZM34.8012 16.1347C35.1918 15.6393 35.6492 15.2004 36.1604 14.8307C36.2274 14.7821 36.2917 14.727 36.3587 14.6797C36.4257 14.6324 36.5241 14.5839 36.6056 14.534C37.1672 14.2003 37.774 13.9495 38.4073 13.7894C38.6711 13.719 38.9391 13.6655 39.2097 13.6292C39.8557 13.5407 40.5111 13.5456 41.1558 13.6436C41.2648 13.6607 41.3764 13.6712 41.4854 13.6935L41.517 13.7014L39.4789 19.6108L33.3317 20.836C33.3012 20.3924 33.3144 19.9468 33.3712 19.5058C33.3935 19.3456 33.4119 19.184 33.4434 19.0238C33.4749 18.8636 33.5222 18.7113 33.5655 18.5563C33.715 18.0243 33.9285 17.5124 34.2011 17.0317C34.3781 16.7187 34.5801 16.4205 34.8052 16.14L34.8012 16.1347ZM45.5014 24.5391C45.4082 24.6599 45.311 24.7781 45.2099 24.8923L41.1192 20.1924L43.1508 14.2947C43.2729 14.3565 43.3937 14.4261 43.5132 14.4904C43.7954 14.6526 44.0658 14.8348 44.3221 15.0354C44.7784 15.3929 45.1871 15.8073 45.5382 16.2685C45.7149 16.4995 45.8759 16.7421 46.0201 16.9947C46.3769 17.6029 46.6366 18.2631 46.7897 18.9514C46.7988 18.9947 46.8133 19.038 46.8225 19.0827C46.8317 19.1273 46.833 19.1694 46.8396 19.214C46.9809 20.0173 46.9756 20.8395 46.8238 21.6408C46.8028 21.7551 46.7752 21.8667 46.7489 21.9783C46.589 22.6187 46.3373 23.2326 46.0017 23.801C45.8533 24.0593 45.6874 24.3072 45.5053 24.543L45.5014 24.5391Z"
        fill="white" />
</svg>