<svg width="16" height="20" viewBox="0 0 16 20" fill="none" xmlns="http://www.w3.org/2000/svg">
    <path fill-rule="evenodd" clip-rule="evenodd"
        d="M14.9174 3.58249L8.29624 1.02561C8.19753 0.989998 8.09581 0.972168 7.99235 0.972168C7.8884 0.972168 7.78524 0.990178 7.68605 1.02615L1.10025 3.58303C0.743989 3.71225 0.494019 4.05073 0.494019 4.42975V10.0856C0.494019 11.3483 0.901008 12.6112 1.67771 13.8391C2.27307 14.7802 3.10171 15.7031 4.12773 16.5824C5.84326 18.0524 7.54546 18.9004 7.61698 18.9358C7.74284 18.9981 7.8813 19.0293 8.01815 19.0293C8.15296 19.0293 8.28866 18.999 8.41308 18.9385C8.4846 18.9037 10.186 18.0689 11.9032 16.6047C12.9302 15.7289 13.7464 14.806 14.3422 13.8616C15.1186 12.6311 15.5056 11.3607 15.5056 10.0856V4.42975C15.5057 4.05014 15.2745 3.71123 14.9174 3.58249Z"
        fill="white" />
</svg>