<svg width="28" height="34" viewBox="0 0 28 34" fill="none" xmlns="http://www.w3.org/2000/svg">
    <path fill-rule="evenodd" clip-rule="evenodd"
        d="M26.9028 4.86884L14.5529 0.0996777C14.3688 0.033257 14.1791 0 13.9861 0C13.7922 0 13.5998 0.0335927 13.4148 0.100685L1.13076 4.86985C0.466251 5.11087 0 5.74221 0 6.44917V16.9986C0 19.3539 0.759128 21.7094 2.20785 23.9997C3.31833 25.7551 4.86393 27.4766 6.77769 29.1166C9.97754 31.8586 13.1525 33.4402 13.2859 33.5062C13.5207 33.6224 13.779 33.6806 14.0342 33.6806C14.2857 33.6806 14.5388 33.6242 14.7708 33.5113C14.9042 33.4463 18.0778 31.8893 21.2806 29.1581C23.1963 27.5247 24.7187 25.8033 25.83 24.0417C27.2782 21.7465 28 19.3769 28 16.9986V6.44917C28.0001 5.74111 27.5689 5.10897 26.9028 4.86884Z"
        fill="url(#paint0_linear_13_1545)" />
    <defs>
        <linearGradient id="paint0_linear_13_1545" x1="14" y1="0" x2="14" y2="33.6806"
            gradientUnits="userSpaceOnUse">
            <stop stop-color="#A5AFC4" />
            <stop offset="1" stop-color="#6D7B98" stop-opacity="0" />
        </linearGradient>
    </defs>
</svg>