<svg width="16" height="18" viewBox="0 0 16 18" fill="none" xmlns="http://www.w3.org/2000/svg">
    <path fill-rule="evenodd" clip-rule="evenodd"
        d="M8.078 9.5C10.5633 9.5 12.578 7.48529 12.578 5C12.578 2.51471 10.5633 0.5 8.078 0.5C5.59272 0.5 3.578 2.51471 3.578 5C3.578 7.48529 5.59272 9.5 8.078 9.5ZM9.26943 17.4998H2.27555C1.33918 17.497 0.580803 16.7386 0.578003 15.8022V14.6706C0.579372 12.1666 2.07932 9.90665 4.38616 8.93286C5.36502 9.96756 6.6955 10.596 8.11336 10.6967C9.54718 10.6057 10.8946 9.97507 11.8832 8.92999C14.1901 9.90378 15.69 12.1638 15.6914 14.6677V15.7994C15.6886 16.7357 14.9302 17.4941 13.9939 17.4969H9.26586L9.26943 17.4998Z"
        fill="white" />
</svg>