<svg width="25" height="20" viewBox="0 0 25 20" fill="none" xmlns="http://www.w3.org/2000/svg">
    <path fill-rule="evenodd" clip-rule="evenodd"
        d="M13.0097 0.11262C12.85 0.0384345 12.6761 0 12.5 0C12.3239 0 12.15 0.0384345 11.9903 0.11262L0.699413 5.35482C0.490467 5.45203 0.313637 5.60691 0.189732 5.80122C0.0658259 5.99553 0 6.22119 0 6.45165C0 6.6821 0.0658259 6.90776 0.189732 7.10207C0.313637 7.29638 0.490467 7.45126 0.699413 7.54847L3.01243 8.62272C2.88776 8.81717 2.82168 9.04339 2.8221 9.27437V14.5166C2.82227 14.7853 2.91194 15.0464 3.07695 15.2585L3.07856 15.2618L3.08018 15.2634L3.08502 15.2698L3.09792 15.286C3.15056 15.3528 3.20599 15.4174 3.26406 15.4795C3.37374 15.6021 3.5302 15.7666 3.73505 15.9618C4.14475 16.3489 4.75123 16.857 5.56095 17.3586C7.18683 18.3684 9.62405 19.3555 12.9032 19.3555C16.1889 19.3555 18.4519 18.3635 19.9117 17.3135C20.4957 16.8963 21.0252 16.4075 21.4875 15.8586C21.6774 15.6302 21.851 15.3887 22.0069 15.1359L22.0182 15.1166L22.0231 15.1101V15.1069C22.0231 15.1053 22.0247 15.1037 20.9682 14.5166L22.0247 15.1053C22.1248 14.9252 22.1775 14.7226 22.1779 14.5166V9.27437C22.1782 9.0434 22.1122 8.8172 21.9876 8.62272L24.3006 7.54847C24.5095 7.45126 24.6864 7.29638 24.8103 7.10207C24.9342 6.90776 25 6.6821 25 6.45165C25 6.22119 24.9342 5.99553 24.8103 5.80122C24.6864 5.60691 24.5095 5.45203 24.3006 5.35482L13.0097 0.11262ZM19.7584 9.65826L13.0097 12.7907C12.85 12.8649 12.6761 12.9033 12.5 12.9033C12.3239 12.9033 12.15 12.8649 11.9903 12.7907L5.24157 9.65826V14.0504C5.72503 14.5264 6.26071 14.9463 6.83843 15.3021C8.13527 16.1086 10.1338 16.936 12.9032 16.936C15.6663 16.936 17.4357 16.1134 18.4971 15.3489C18.9724 15.0102 19.3971 14.6056 19.7584 14.1472V9.65826ZM12.5 10.3599L4.08184 6.45165L12.5 2.54339L20.9182 6.45165L12.5 10.3599Z"
        fill="white" />
</svg>