<svg width="30" height="30" viewBox="0 0 30 30" fill="none" xmlns="http://www.w3.org/2000/svg">
<path d="M15 1.25C22.5939 1.25 28.75 7.40609 28.75 15C28.75 22.5939 22.5939 28.75 15 28.75C7.40609 28.75 1.25 22.5939 1.25 15C1.25 7.40609 7.40609 1.25 15 1.25Z" stroke="white" stroke-width="2.5"/>
<path fill-rule="evenodd" clip-rule="evenodd" d="M10.3345 18.0505C9.88856 18.4965 9.88856 19.2195 10.3345 19.6655C10.7805 20.1114 11.5035 20.1114 11.9495 19.6655L15 16.615L18.0505 19.6655C18.4965 20.1115 19.2195 20.1115 19.6655 19.6655C20.1114 19.2195 20.1114 18.4965 19.6655 18.0505L16.615 15L19.6655 11.9495C20.1115 11.5035 20.1115 10.7804 19.6655 10.3345C19.2196 9.88851 18.4965 9.88851 18.0505 10.3345L15 13.385L11.9495 10.3345C11.5035 9.88851 10.7804 9.88851 10.3345 10.3345C9.88851 10.7804 9.88851 11.5035 10.3345 11.9495L13.385 15L10.3345 18.0505Z" fill="white"/>
</svg>
