<svg width="19" height="17" viewBox="0 0 19 17" fill="none" xmlns="http://www.w3.org/2000/svg">
<g id="Group 37">
<path id="Pfad 44126" d="M18.2057 10.7471C17.8468 10.7471 17.5557 11.0381 17.5557 11.3971V13.6169C17.5557 14.7064 16.6725 15.5896 15.5829 15.5896H4.2728C3.18327 15.5896 2.30002 14.7064 2.30002 13.6169V11.3971C2.30002 11.0381 2.009 10.7471 1.65001 10.7471C1.29102 10.7471 1 11.0381 1 11.3971V13.6169C1.00179 15.4236 2.46602 16.8879 4.27279 16.8897H15.5829C17.3897 16.8879 18.8539 15.4236 18.8557 13.6169V11.3971C18.8557 11.0381 18.5647 10.7471 18.2057 10.7471H18.2057Z" fill="white" stroke="white" stroke-width="0.2"/>
<path id="Pfad 44127" d="M6.67815 5.12405L9.27818 2.52401V12.1766C9.27818 12.5356 9.5692 12.8267 9.92819 12.8267C10.2872 12.8267 10.5782 12.5356 10.5782 12.1766V2.53376L13.1782 5.1338C13.4322 5.38779 13.844 5.38779 14.098 5.1338C14.352 4.87981 14.352 4.46802 14.098 4.21404L10.3897 0.505742C10.2994 0.418102 10.1871 0.356362 10.0647 0.326992C9.85123 0.287692 9.63196 0.354322 9.47644 0.505742L5.76814 4.20429C5.55433 4.46157 5.5707 4.83911 5.80598 5.07691C6.04126 5.31471 6.41861 5.33511 6.67815 5.12405Z" fill="white" stroke="white" stroke-width="0.2"/>
</g>
</svg>
