<svg width="27" height="32" viewBox="0 0 27 32" fill="none" xmlns="http://www.w3.org/2000/svg">
    <path fill-rule="evenodd" clip-rule="evenodd"
        d="M21.8147 22.4386C23.5019 23.4179 25.4328 24.539 26.8257 26.0816C23.288 29.3275 18.5804 31.3071 13.4128 31.3071C8.24522 31.3071 3.53767 29.3275 0 26.0816C1.39268 24.5392 3.32318 23.4184 5.01021 22.4389L5.01291 22.4375L5.01849 22.4342C7.10301 21.2224 8.90416 20.1754 8.90416 18.8635C8.93637 17.4453 8.31029 16.0918 7.20856 15.1983C6.21289 15.0332 5.69116 13.1636 5.69116 12.1374C5.63548 11.6914 5.79332 11.2453 6.11725 10.9332C5.39554 8.5897 5.40857 5.33762 7.04768 3.03757C8.33026 1.23753 10.4433 0.281104 13.1607 0.272315C15.1033 -0.344628 17.2272 0.102882 18.7563 1.45066C19.978 2.55064 21.8345 5.23325 20.6998 10.9072C20.9346 11.0724 21.1606 11.4159 21.1606 12.1375C21.1606 13.1637 20.6389 15.0376 19.6389 15.1985C18.5246 16.0844 17.8894 17.4405 17.9216 18.8636C17.9216 20.1758 19.7235 21.223 21.8087 22.4349L21.8128 22.4375L21.8147 22.4386Z"
        fill="white" />
</svg>